HIERARCHY
ROOT hip
{
	OFFSET 0.000000 0.000000 0.000000 
	CHANNELS 6 Xposition Yposition Zposition Xrotation Zrotation Yrotation
	JOINT abdomen
	{
		OFFSET 0.000000 3.402643 0.000000 
		CHANNELS 3 Xrotation Zrotation Yrotation
		JOINT chest
		{
			OFFSET 0.000000 8.438565 -0.680529 
			CHANNELS 3 Xrotation Zrotation Yrotation
			JOINT neck
			{
				OFFSET 0.000000 10.207942 -0.272212 
				CHANNELS 3 Xrotation Zrotation Yrotation
				JOINT head
				{
					OFFSET 0.000000 3.130431 0.000000 
					CHANNELS 3 Xrotation Zrotation Yrotation
					End Site
					{
						OFFSET 0.000000 3.130435 0.000000 
					}
				}
			}
			JOINT lCollar
			{
				OFFSET 3.470700 6.669187 -0.816635 
				CHANNELS 3 Yrotation Zrotation Xrotation
				JOINT lShldr
				{
					OFFSET 3.198488 0.000000 0.000000 
					CHANNELS 3 Zrotation Yrotation Xrotation
					JOINT lForeArm
					{
						OFFSET 10.139888 0.000000 0.000000 
						CHANNELS 3 Yrotation Zrotation Xrotation
						JOINT lHand
						{
							OFFSET 8.370511 0.000000 0.000000 
							CHANNELS 3 Zrotation Yrotation Xrotation
							End Site
							{
								OFFSET 4.083176 0.000000 0.000000 
							}
						}
					}
				}
			}
			JOINT rCollar
			{
				OFFSET -3.470700 6.669187 -0.816635 
				CHANNELS 3 Yrotation Zrotation Xrotation
				JOINT rShldr
				{
					OFFSET -3.198488 0.000000 0.000000 
					CHANNELS 3 Zrotation Yrotation Xrotation
					JOINT rForeArm
					{
						OFFSET -10.139888 0.000000 0.000000 
						CHANNELS 3 Yrotation Zrotation Xrotation
						JOINT rHand
						{
							OFFSET -8.370511 0.000000 0.000000 
							CHANNELS 3 Zrotation Yrotation Xrotation
							End Site
							{
								OFFSET -4.083176 0.000000 0.000000 
							}
						}
					}
				}
			}
		}
	}
	JOINT lThigh
	{
		OFFSET 5.308129 -1.633274 1.361059 
		CHANNELS 3 Xrotation Zrotation Yrotation
		JOINT lShin
		{
			OFFSET -2.041588 -20.007561 0.000000 
			CHANNELS 3 Xrotation Zrotation Yrotation
			JOINT lFoot
			{
				OFFSET 0.000000 -19.190928 -1.224953 
				CHANNELS 3 Xrotation Yrotation Zrotation
				End Site
				{
					OFFSET 0.000000 -2.449906 4.627600 
				}
			}
		}
	}
	JOINT rThigh
	{
		OFFSET -5.308129 -1.633274 1.361059 
		CHANNELS 3 Xrotation Zrotation Yrotation
		JOINT rShin
		{
			OFFSET 2.041588 -20.007561 0.000000 
			CHANNELS 3 Xrotation Zrotation Yrotation
			JOINT rFoot
			{
				OFFSET 0.000000 -19.190928 -1.224953 
				CHANNELS 3 Xrotation Yrotation Zrotation
				End Site
				{
					OFFSET 0.000000 -2.449906 4.627600 
				}
			}
		}
	}
}
MOTION
Frames: 6
Frame Time: 0.011111
1.170911 49.817802 -114.212448 19.625391 1.044424 -2.084765 22.544741 3.186528 -4.081924 -20.600044 4.528945 -1.119811 -9.239876 -8.877213 0.483843 11.033060 12.142691 1.158031 9.553514 -10.448139 3.647584 -72.800552 -30.710030 24.409851 -58.654434 9.146793 11.805810 8.524705 12.647240 -42.239635 -5.779580 5.050342 2.610686 69.182587 27.282244 32.409515 59.444740 -9.232033 12.163575 -8.534408 -12.637552 43.949078 -26.873148 11.219897 -1.401212 53.778408 -3.402371 -7.575768 -22.982777 -8.113855 -5.996732 -11.320791 -1.259695 3.050212 32.739689 5.155701 5.188000 -35.569618 0.321373 0.945818 
1.138202 49.726597 -113.840088 18.439550 0.914064 0.685755 25.339737 4.215026 -8.864189 -26.122082 11.714024 -3.216434 -8.168180 -11.978103 2.167441 13.289039 9.212571 4.210733 9.553514 -10.448139 3.647584 -79.522766 -25.208805 19.625210 -59.750065 9.247416 12.285113 8.524705 12.647240 -42.640022 -5.779580 5.050342 2.610686 61.288586 23.803394 37.668541 60.467209 -9.315317 12.621318 -8.534408 -12.637552 45.599468 -27.176844 10.517277 -3.298030 55.796452 -3.188029 -7.780962 -20.762285 -9.106095 -6.262659 -8.724503 -1.278693 1.913313 32.013725 5.189097 5.103769 -36.173489 -1.006381 -0.083678 
1.086938 49.662125 -113.509842 18.565599 0.644564 0.381407 25.404387 4.676519 -9.649140 -26.537613 13.002349 -3.614300 -7.420924 -12.944291 2.528645 13.056739 8.991014 4.953632 9.553514 -10.448139 3.647584 -81.001900 -24.185301 17.639063 -60.283508 9.293636 12.530706 8.524705 12.647240 -41.966198 -5.779580 5.050342 2.610686 59.631676 23.691071 39.499542 61.115494 -9.353693 12.910579 -8.534408 -12.637552 43.968605 -28.456865 11.119437 -2.961964 57.822853 -2.976697 -7.962443 -18.660263 -9.311390 -6.138564 -8.060609 -0.946800 1.980607 31.393950 5.238617 5.022550 -36.017826 -0.986333 -0.030036 
1.051083 49.601421 -113.174255 18.633818 0.677366 0.589203 25.667183 4.540838 -8.773410 -26.126564 11.955532 -3.255214 -7.405695 -12.913265 1.614341 13.144874 9.744774 3.220789 9.553514 -10.448139 3.647584 -79.899986 -24.554625 18.896633 -60.422611 9.305408 12.589603 8.524705 12.647240 -41.429085 -5.779580 5.050342 2.610686 60.747383 24.127701 38.975765 61.637825 -9.382943 13.139286 -8.534408 -12.637552 44.437355 -29.720434 11.179484 -2.949086 59.847389 -2.741051 -8.143059 -16.257801 -9.417192 -5.911200 -7.308514 -0.975961 1.853339 30.717081 5.267599 4.931259 -36.196735 -0.791548 0.065446 
1.015544 49.549210 -112.836174 18.622284 0.426493 0.844470 24.731216 4.639661 -4.715150 -20.376711 4.021224 -1.437475 -8.502117 -9.258738 -0.381037 9.397467 12.687925 -0.605823 9.553514 -10.448139 3.647584 -72.433304 -30.608694 24.919563 -59.474400 9.227100 12.166295 8.524705 12.647240 -40.286510 -5.779580 5.050342 2.610686 69.124939 28.040033 33.758617 61.831474 -9.398971 13.242553 -8.534408 -12.637552 43.949078 -31.200428 11.523118 -3.032617 61.968372 -2.495684 -8.308263 -13.941281 -9.573884 -5.699124 -6.450216 -0.692831 1.694760 30.086805 5.307252 4.865366 -36.303097 -0.856797 -0.000096 
0.964595 49.475933 -112.525124 18.670341 0.046200 0.778412 25.229897 4.764117 -3.357218 -19.571320 2.663731 -1.060967 -9.397082 -8.437901 -0.633893 9.186495 13.034389 -1.160712 9.553514 -10.448139 3.647584 -71.143410 -31.916283 26.245184 -59.313484 9.208052 12.086620 8.524705 12.647240 -39.817764 -5.779580 5.050342 2.610686 70.423195 28.943298 33.261753 62.716011 -9.434391 13.644127 -8.534408 -12.637552 44.632671 -32.879326 12.147635 -2.859408 64.125488 -2.243310 -8.501955 -12.415451 -9.805127 -5.554790 -5.734933 -0.234469 1.865007 29.482645 5.364892 4.807010 -36.292393 -0.909723 -0.042731 
